<svg xmlns:xlink="http://www.w3.org/1999/xlink" height="400" width="1085" version="1.1" xmlns="http://www.w3.org/2000/svg"><defs><clipPath id="highcharts-8"><rect stroke-width="0" height="400" width="9999" y="0" x="0" fill="none" ry="0" rx="0"></rect></clipPath><clipPath id="highcharts-9"><rect height="300" width="907" y="0" x="0" fill="none"></rect></clipPath></defs><rect stroke-width="0" height="400" width="1085" y="0" x="0" fill="#FFFFFF" ry="5" rx="5"></rect><path stroke-width="1" stroke="#808080" d="M 48 340.5 L 955 340.5" fill="none"></path><g  class="highcharts-grid"></g><g  class="highcharts-grid"><path  stroke-width="1" stroke="#C0C0C0" d="M 48 265.5 L 955 265.5" fill="none"></path><path  stroke-width="1" stroke="#C0C0C0" d="M 48 190.5 L 955 190.5" fill="none"></path><path  stroke-width="1" stroke="#C0C0C0" d="M 48 115.5 L 955 115.5" fill="none"></path><path  stroke-width="1" stroke="#C0C0C0" d="M 48 40.5 L 955 40.5" fill="none"></path><path  stroke-width="1" stroke="#C0C0C0" d="M 48 340.5 L 955 340.5" fill="none"></path></g><g  class="highcharts-axis"><path stroke-width="1" stroke="#C0D0E0" d="M 410.5 340 L 410.5 345" fill="none"></path><path stroke-width="1" stroke="#C0D0E0" d="M 591.5 340 L 591.5 345" fill="none"></path><path stroke-width="1" stroke="#C0D0E0" d="M 773.5 340 L 773.5 345" fill="none"></path><path stroke-width="1" stroke="#C0D0E0" d="M 954.5 340 L 954.5 345" fill="none"></path><path stroke-width="1" stroke="#C0D0E0" d="M 228.5 340 L 228.5 345" fill="none"></path><path visibility="visible"  stroke-width="1" stroke="#C0D0E0" d="M 48 340.5 L 955 340.5" fill="none"></path></g><g  class="highcharts-axis"><text visibility="visible" text-anchor="middle" transform="rotate(270, 24, 190)"  style="font-family: 'lucida grande','lucida sans unicode',verdana,arial,helvetica,sans-serif; font-size: 12px; color: rgb(109, 134, 159); font-weight: bold; fill: rgb(109, 134, 159);" y="190" x="24"><tspan x="24">DPU (fault/car)</tspan></text></g><g  class="highcharts-series-group"><g clip-path="url(#highcharts-9)" transform="translate(48, 40)"  visibility="visible" class="highcharts-series"><path transform="translate(1, 1)" stroke-opacity="0.049999999999999996"   stroke-width="5" stroke="black" d="M 90.7 300 L 272.1 262.5 L 453.5 18.8 L 634.9000000000001 300 L 816.3000000000001 300" fill="none"></path><path transform="translate(1, 1)" stroke-opacity="0.09999999999999999"   stroke-width="3" stroke="black" d="M 90.7 300 L 272.1 262.5 L 453.5 18.8 L 634.9000000000001 300 L 816.3000000000001 300" fill="none"></path><path transform="translate(1, 1)" stroke-opacity="0.15"   stroke-width="1" stroke="black" d="M 90.7 300 L 272.1 262.5 L 453.5 18.8 L 634.9000000000001 300 L 816.3000000000001 300" fill="none"></path><path  stroke-width="2" stroke="#4572A7" d="M 90.7 300 L 272.1 262.5 L 453.5 18.8 L 634.9000000000001 300 L 816.3000000000001 300" fill="none"></path></g><g clip-path="none" transform="translate(48, 40)"  visibility="visible" class="highcharts-markers"><path stroke-width="0" stroke="#FFFFFF" d="M 816.3000000000001 296 C 821.628 296 821.628 304 816.3000000000001 304 C 810.9720000000001 304 810.9720000000001 296 816.3000000000001 296 Z" fill="#4572A7"></path><path stroke-width="0" stroke="#FFFFFF" d="M 634.9000000000001 296 C 640.2280000000001 296 640.2280000000001 304 634.9000000000001 304 C 629.5720000000001 304 629.5720000000001 296 634.9000000000001 296 Z" fill="#4572A7"></path><path stroke-width="0" stroke="#FFFFFF" d="M 453.5 14.8 C 458.828 14.8 458.828 22.8 453.5 22.8 C 448.172 22.8 448.172 14.8 453.5 14.8 Z" fill="#4572A7"></path><path stroke-width="0" stroke="#FFFFFF" d="M 272.1 258.5 C 277.428 258.5 277.428 266.5 272.1 266.5 C 266.77200000000005 266.5 266.77200000000005 258.5 272.1 258.5 Z" fill="#4572A7"></path><path stroke-width="0" stroke="#FFFFFF" d="M 90.7 296 C 96.028 296 96.028 304 90.7 304 C 85.372 304 85.372 296 90.7 296 Z" fill="#4572A7"></path></g></g><text  class="highcharts-title" text-anchor="middle" style="font-family: 'lucida grande','lucida sans unicode',verdana,arial,helvetica,sans-serif; font-size: 16px; color: rgb(62, 87, 111); fill: rgb(62, 87, 111);" y="25" x="523"><tspan x="523">DPU趋势图</tspan></text><g transform="translate(48, 40)"  visibility="visible" class="highcharts-data-labels"><g visibility="inherit" transform="translate(85, 281)" style="" ><rect stroke-width="0" height="19" width="12" y="0" x="0" fill="none" ry="0" rx="0"></rect><text  style="font-family: 'lucida grande','lucida sans unicode',verdana,arial,helvetica,sans-serif; font-size: 11px; color: rgb(102, 102, 102); line-height: 14px; fill: rgb(102, 102, 102);" y="15" x="3"><tspan x="3">0</tspan></text></g><g visibility="inherit" transform="translate(266, 244)" style="" ><rect stroke-width="0" height="19" width="12" y="0" x="0" fill="none" ry="0" rx="0"></rect><text  style="font-family: 'lucida grande','lucida sans unicode',verdana,arial,helvetica,sans-serif; font-size: 11px; color: rgb(102, 102, 102); line-height: 14px; fill: rgb(102, 102, 102);" y="15" x="3"><tspan x="3">1</tspan></text></g><g visibility="inherit" transform="translate(443)" style="" ><rect stroke-width="0" height="19" width="21" y="0" x="0" fill="none" ry="0" rx="0"></rect><text  style="font-family: 'lucida grande','lucida sans unicode',verdana,arial,helvetica,sans-serif; font-size: 11px; color: rgb(102, 102, 102); line-height: 14px; fill: rgb(102, 102, 102);" y="15" x="3"><tspan x="3">7.5</tspan></text></g><g visibility="inherit" transform="translate(629, 281)" style="" ><rect stroke-width="0" height="19" width="12" y="0" x="0" fill="none" ry="0" rx="0"></rect><text  style="font-family: 'lucida grande','lucida sans unicode',verdana,arial,helvetica,sans-serif; font-size: 11px; color: rgb(102, 102, 102); line-height: 14px; fill: rgb(102, 102, 102);" y="15" x="3"><tspan x="3">0</tspan></text></g><g visibility="inherit" transform="translate(810, 281)" style="" ><rect stroke-width="0" height="19" width="12" y="0" x="0" fill="none" ry="0" rx="0"></rect><text  style="font-family: 'lucida grande','lucida sans unicode',verdana,arial,helvetica,sans-serif; font-size: 11px; color: rgb(102, 102, 102); line-height: 14px; fill: rgb(102, 102, 102);" y="15" x="3"><tspan x="3">0</tspan></text></g></g><g transform="translate(993, 110)"  class="highcharts-legend"><g clip-path="url(#highcharts-8)" ><g><g transform="translate(8, 3)"  class="highcharts-legend-item"><path stroke="#4572A7" stroke-width="2" d="M 0 11 L 16 11" fill="none"></path><path stroke-width="0" stroke="#FFFFFF" d="M 8 7 C 13.328 7 13.328 15 8 15 C 2.6719999999999997 15 2.6719999999999997 7 8 7 Z" fill="#4572A7"></path><text  text-anchor="start" style="font-family: 'lucida grande','lucida sans unicode',verdana,arial,helvetica,sans-serif; font-size: 12px; cursor: pointer; color: rgb(62, 87, 111); fill: rgb(62, 87, 111);" y="15" x="21"><tspan x="21">F0.DPU</tspan></text></g></g></g></g><g  class="highcharts-axis-labels"><text visibility="visible" transform="rotate(-45, 138.7, 354)" text-anchor="end" style="font-family: 'lucida grande','lucida sans unicode',verdana,arial,helvetica,sans-serif; font-size: 11px; color: rgb(102, 102, 102); line-height: 14px; fill: rgb(102, 102, 102);" y="354" x="138.7"><tspan x="138.7">2012-10-01</tspan></text><text visibility="visible" transform="rotate(-45, 320.1, 354)" text-anchor="end" style="font-family: 'lucida grande','lucida sans unicode',verdana,arial,helvetica,sans-serif; font-size: 11px; color: rgb(102, 102, 102); line-height: 14px; fill: rgb(102, 102, 102);" y="354" x="320.1"><tspan x="320.1">2012-10-08</tspan></text><text visibility="visible" transform="rotate(-45, 501.5, 354)" text-anchor="end" style="font-family: 'lucida grande','lucida sans unicode',verdana,arial,helvetica,sans-serif; font-size: 11px; color: rgb(102, 102, 102); line-height: 14px; fill: rgb(102, 102, 102);" y="354" x="501.5"><tspan x="501.5">2012-10-15</tspan></text><text visibility="visible" transform="rotate(-45, 682.9, 354)" text-anchor="end" style="font-family: 'lucida grande','lucida sans unicode',verdana,arial,helvetica,sans-serif; font-size: 11px; color: rgb(102, 102, 102); line-height: 14px; fill: rgb(102, 102, 102);" y="354" x="682.9"><tspan x="682.9">2012-10-22</tspan></text><text visibility="visible" transform="rotate(-45, 864.3, 354)" text-anchor="end" style="font-family: 'lucida grande','lucida sans unicode',verdana,arial,helvetica,sans-serif; font-size: 11px; color: rgb(102, 102, 102); line-height: 14px; fill: rgb(102, 102, 102);" y="354" x="864.3"><tspan x="864.3">2012-10-29</tspan></text></g><g  class="highcharts-axis-labels"><text visibility="visible" text-anchor="end" style="font-family: 'lucida grande','lucida sans unicode',verdana,arial,helvetica,sans-serif; font-size: 11px; width: 434px; color: rgb(102, 102, 102); line-height: 14px; fill: rgb(102, 102, 102);" y="346.1" x="40"><tspan x="40">0</tspan></text><text visibility="visible" text-anchor="end" style="font-family: 'lucida grande','lucida sans unicode',verdana,arial,helvetica,sans-serif; font-size: 11px; width: 434px; color: rgb(102, 102, 102); line-height: 14px; fill: rgb(102, 102, 102);" y="271.1" x="40"><tspan x="40">2</tspan></text><text visibility="visible" text-anchor="end" style="font-family: 'lucida grande','lucida sans unicode',verdana,arial,helvetica,sans-serif; font-size: 11px; width: 434px; color: rgb(102, 102, 102); line-height: 14px; fill: rgb(102, 102, 102);" y="196.1" x="40"><tspan x="40">4</tspan></text><text visibility="visible" text-anchor="end" style="font-family: 'lucida grande','lucida sans unicode',verdana,arial,helvetica,sans-serif; font-size: 11px; width: 434px; color: rgb(102, 102, 102); line-height: 14px; fill: rgb(102, 102, 102);" y="121.1" x="40"><tspan x="40">6</tspan></text><text visibility="visible" text-anchor="end" style="font-family: 'lucida grande','lucida sans unicode',verdana,arial,helvetica,sans-serif; font-size: 11px; width: 434px; color: rgb(102, 102, 102); line-height: 14px; fill: rgb(102, 102, 102);" y="46.1" x="40"><tspan x="40">8</tspan></text></g><g visibility="hidden" style="padding: 0pt; white-space: nowrap;"  class="highcharts-tooltip"><rect transform="translate(1, 1)" stroke-opacity="0.049999999999999996" stroke="black"  fill-opacity="0.85" stroke-width="5" height="10" width="10" y="0" x="0" fill="none" ry="5" rx="5"></rect><rect transform="translate(1, 1)" stroke-opacity="0.09999999999999999" stroke="black"  fill-opacity="0.85" stroke-width="3" height="10" width="10" y="0" x="0" fill="none" ry="5" rx="5"></rect><rect transform="translate(1, 1)" stroke-opacity="0.15" stroke="black"  fill-opacity="0.85" stroke-width="1" height="10" width="10" y="0" x="0" fill="none" ry="5" rx="5"></rect><rect fill-opacity="0.85" stroke-width="2" height="10" width="10" y="0" x="0" fill="rgb(255,255,255)" ry="5" rx="5"></rect><text  style="font-family: 'lucida grande','lucida sans unicode',verdana,arial,helvetica,sans-serif; font-size: 12px; color: rgb(51, 51, 51); fill: rgb(51, 51, 51);" y="18" x="5"></text></g><text  text-anchor="end" style="font-family: 'lucida grande','lucida sans unicode',verdana,arial,helvetica,sans-serif; font-size: 10px; cursor: pointer; color: rgb(144, 144, 144); fill: rgb(144, 144, 144);" y="395" x="1075"><tspan x="1075">byd 第十一事业部</tspan></text><g  class="highcharts-tracker"><g clip-path="url(#highcharts-9)" transform="translate(48, 40)"  visibility="visible"><path style="" stroke-width="22" stroke="rgb(192,192,192)" stroke-opacity="0.000001" visibility="visible" stroke-linejoin="bevel"  d="M 80.7 300 L 90.7 300 L 272.1 262.5 L 453.5 18.8 L 634.9000000000001 300 L 816.3000000000001 300 L 826.3000000000001 300" fill="none"></path></g></g></svg>